<?xml version="1.0" standalone="no"?>
<!DOCTYPE svg PUBLIC "-//W3C//DTD SVG 20010904//EN"
 "http://www.w3.org/TR/2001/REC-SVG-20010904/DTD/svg10.dtd">
<svg version="1.0" xmlns="http://www.w3.org/2000/svg"
 width="500.000000pt" height="500.000000pt" viewBox="0 0 500.000000 500.000000"
 preserveAspectRatio="xMidYMid meet">

<g transform="translate(0.000000,500.000000) scale(0.100000,-0.100000)"
fill="#000000" stroke="none">
<path d="M1362 3860 c2 -4 200 -328 442 -719 l439 -710 110 177 c60 97 117
189 126 204 9 16 18 28 21 28 3 0 58 -88 124 -195 65 -108 122 -198 126 -200
4 -2 184 282 400 633 217 350 415 671 441 713 l47 75 -212 -73 c-498 -173
-486 -166 -380 -228 35 -20 64 -39 64 -41 0 -16 -354 -583 -361 -579 -19 12
-91 146 -85 160 3 8 71 122 152 252 81 131 147 246 146 255 0 10 7 22 17 27 9
5 41 49 71 98 29 48 60 98 68 110 13 20 -4 16 -159 -38 -96 -34 -239 -83 -319
-111 l-145 -51 -304 107 c-167 59 -306 104 -309 102 -4 -4 43 -83 114 -191 17
-26 46 -35 -494 153 -79 27 -142 46 -140 42z m822 -504 l156 -253 -34 -62
c-19 -34 -42 -71 -50 -82 l-14 -21 -15 24 c-42 65 -330 544 -334 554 -3 9 108
86 133 94 1 0 72 -114 158 -254z m367 198 c44 -24 47 -29 37 -48 -17 -33 -89
-146 -93 -146 -10 0 -95 161 -90 170 7 11 74 49 89 50 4 0 30 -12 57 -26z"/>
</g>
</svg>
